<svg xmlns="http://www.w3.org/2000/svg" viewBox="0 0 48 48" fill="none" stroke="currentColor" stroke-width="1.5">
  <path fill="currentColor" stroke="none" d="M24 10c-6 0-9.5 3.5-10.5 10 2-3.5 4.5-5 7.5-4.5 1.6.3 2.8 1.5 4.5 3.3 2.2 2.5 5 4 8.5 4 6 0 9.5-3.5 10.5-10-2 3.5-4.5 5-7.5 4.5-1.6-.3-2.8-1.5-4.5-3.3-2.2-2.5-5-4-8.5-4ZM4 24c-6 0-9.5 3.5-10.5 10 2-3.5 4.5-5 7.5-4.5 1.6.3 2.8 1.5 4.5 3.3 2.2 2.5 5 4 8.5 4 6 0 9.5-3.5 10.5-10-2 3.5-4.5 5-7.5 4.5-1.6-.3-2.8-1.5-4.5-3.3-2.2-2.5-5-4-8.5-4Z"/>
</svg>
