<svg width="128" height="128" viewBox="0 0 128 128" xmlns="http://www.w3.org/2000/svg">
  <defs>
    <linearGradient id="bg-gradient" x1="0%" y1="0%" x2="100%" y2="100%">
      <stop offset="0%" stop-color="#6FB7C9" />
      <stop offset="100%" stop-color="#1E4A60" />
    </linearGradient>
  </defs>
  <rect width="128" height="128" rx="28" fill="url(#bg-gradient)" />
  <path
    d="M34 48L64 36l30 12v44c0 3.314-2.686 6-6 6H40c-3.314 0-6-2.686-6-6V48z"
    fill="white"
    opacity="0.15"
  />
  <path
    d="M35 50l29-11 29 11v38c0 3.314-2.686 6-6 6H41c-3.314 0-6-2.686-6-6V50z"
    fill="#F2EFD9"
  />
  <path
    d="M41 50l23-9 23 9v32c0 2.209-1.791 4-4 4H45c-2.209 0-4-1.791-4-4V50z"
    fill="#1F4B60"
    opacity="0.18"
  />
  <path
    d="M37 48.5L64 38l27 10.5v3.5L64 41 37 52v-3.5z"
    fill="white"
    opacity="0.8"
  />
  <path
    d="M60.5 64.25c0-1.243.458-2.436 1.278-3.323a4.197 4.197 0 013.096-1.423h17.126"
    stroke="#1F4B60"
    stroke-width="5"
    stroke-linecap="round"
  />
  <path
    d="M52 70h26"
    stroke="#1F4B60"
    stroke-width="4"
    stroke-linecap="round"
  />
  <path
    d="M52 80h18"
    stroke="#1F4B60"
    stroke-width="4"
    stroke-linecap="round"
  />
</svg>
